<svg width="48" height="46" viewBox="0 0 48 46" fill="none" xmlns="http://www.w3.org/2000/svg">
<g id="Home" filter="url(#filter0_d_1403_1477)">
<path id="Vector" fill-rule="evenodd" clip-rule="evenodd" d="M20.993 6.48209C21.2487 6.23093 21.5884 6.09082 21.9417 6.09082C22.295 6.09082 22.6348 6.23093 22.8905 6.48209L33.8905 17.2757L37.328 20.6473C37.5924 20.9066 37.746 21.2634 37.755 21.6394C37.764 22.0153 37.6277 22.3795 37.3761 22.6519C37.1245 22.9243 36.7781 23.0826 36.4133 23.0919C36.0484 23.1012 35.6949 22.9608 35.4305 22.7015L34.3167 21.6064V32.2994C34.3167 33.0509 34.027 33.7715 33.5113 34.3029C32.9955 34.8342 32.2961 35.1328 31.5667 35.1328H12.3167C11.5874 35.1328 10.8879 34.8342 10.3722 34.3029C9.85645 33.7715 9.56672 33.0509 9.56672 32.2994V21.6064L8.45297 22.7001C8.18895 22.9593 7.83578 23.0999 7.47116 23.0909C7.10654 23.0818 6.76034 22.9239 6.50872 22.6519C6.25709 22.3799 6.12066 22.016 6.12943 21.6404C6.13819 21.2647 6.29145 20.908 6.55547 20.6488L9.99297 17.2757L20.993 6.48067V6.48209ZM12.3167 18.9091V32.2994H17.8167V25.2161C17.8167 24.0889 18.2513 23.0079 19.0249 22.2109C19.7985 21.4139 20.8477 20.9661 21.9417 20.9661C23.0357 20.9661 24.0849 21.4139 24.8585 22.2109C25.6321 23.0079 26.0667 24.0889 26.0667 25.2161V32.2994H31.5667V18.9091L21.9417 9.46276L12.3167 18.9077V18.9091ZM23.3167 32.2994V25.2161C23.3167 24.8404 23.1719 24.48 22.914 24.2144C22.6561 23.9487 22.3064 23.7994 21.9417 23.7994C21.577 23.7994 21.2273 23.9487 20.9694 24.2144C20.7116 24.48 20.5667 24.8404 20.5667 25.2161V32.2994H23.3167Z" fill="#0B8FAC"/>
</g>
<defs>
<filter id="filter0_d_1403_1477" x="-2" y="-3" width="49.7554" height="50" filterUnits="userSpaceOnUse" color-interpolation-filters="sRGB">
<feFlood flood-opacity="0" result="BackgroundImageFix"/>
<feColorMatrix in="SourceAlpha" type="matrix" values="0 0 0 0 0 0 0 0 0 0 0 0 0 0 0 0 0 0 127 0" result="hardAlpha"/>
<feOffset dx="2" dy="2"/>
<feGaussianBlur stdDeviation="4"/>
<feColorMatrix type="matrix" values="0 0 0 0 0 0 0 0 0 0 0 0 0 0 0 0 0 0 0.1 0"/>
<feBlend mode="normal" in2="BackgroundImageFix" result="effect1_dropShadow_1403_1477"/>
<feBlend mode="normal" in="SourceGraphic" in2="effect1_dropShadow_1403_1477" result="shape"/>
</filter>
</defs>
</svg>
