<svg width="36" height="36" viewBox="0 0 36 36" fill="none" xmlns="http://www.w3.org/2000/svg">
<g id="u:user" filter="url(#filter0_d_1403_1476)">
<path id="Vector" d="M19.71 16.7096C20.6904 15.9383 21.406 14.8806 21.7572 13.6836C22.1085 12.4866 22.0779 11.2099 21.6698 10.0311C21.2617 8.85231 20.4963 7.83003 19.4801 7.10649C18.4639 6.38296 17.2474 5.99414 16 5.99414C14.7525 5.99414 13.5361 6.38296 12.5199 7.10649C11.5037 7.83003 10.7383 8.85231 10.3302 10.0311C9.92208 11.2099 9.89151 12.4866 10.2428 13.6836C10.594 14.8806 11.3096 15.9383 12.29 16.7096C10.6101 17.3827 9.14428 18.499 8.04889 19.9396C6.95349 21.3801 6.26956 23.0909 6.07 24.8896C6.05555 25.021 6.06711 25.1538 6.10402 25.2807C6.14093 25.4075 6.20246 25.5259 6.28511 25.629C6.45202 25.8371 6.69478 25.9705 6.96 25.9996C7.22521 26.0288 7.49116 25.9514 7.69932 25.7845C7.90749 25.6176 8.04082 25.3749 8.07 25.1096C8.28958 23.1548 9.22168 21.3494 10.6882 20.0384C12.1547 18.7274 14.0529 18.0027 16.02 18.0027C17.9871 18.0027 19.8852 18.7274 21.3518 20.0384C22.8183 21.3494 23.7504 23.1548 23.97 25.1096C23.9972 25.3554 24.1144 25.5823 24.2991 25.7467C24.4838 25.911 24.7228 26.0011 24.97 25.9996H25.08C25.3421 25.9695 25.5817 25.8369 25.7466 25.6309C25.9114 25.4248 25.9881 25.162 25.96 24.8996C25.7595 23.0958 25.0719 21.3806 23.9708 19.9378C22.8698 18.4951 21.3969 17.3791 19.71 16.7096ZM16 15.9996C15.2089 15.9996 14.4355 15.765 13.7777 15.3255C13.1199 14.886 12.6072 14.2613 12.3045 13.5304C12.0017 12.7995 11.9225 11.9952 12.0769 11.2193C12.2312 10.4434 12.6122 9.73062 13.1716 9.17121C13.731 8.6118 14.4437 8.23084 15.2196 8.0765C15.9956 7.92215 16.7998 8.00137 17.5307 8.30412C18.2616 8.60687 18.8863 9.11956 19.3259 9.77736C19.7654 10.4352 20 11.2085 20 11.9996C20 13.0605 19.5786 14.0779 18.8284 14.8281C18.0783 15.5782 17.0609 15.9996 16 15.9996Z" fill="black"/>
</g>
<defs>
<filter id="filter0_d_1403_1476" x="-2" y="-2" width="40" height="40" filterUnits="userSpaceOnUse" color-interpolation-filters="sRGB">
<feFlood flood-opacity="0" result="BackgroundImageFix"/>
<feColorMatrix in="SourceAlpha" type="matrix" values="0 0 0 0 0 0 0 0 0 0 0 0 0 0 0 0 0 0 127 0" result="hardAlpha"/>
<feOffset dx="2" dy="2"/>
<feGaussianBlur stdDeviation="4"/>
<feColorMatrix type="matrix" values="0 0 0 0 0 0 0 0 0 0 0 0 0 0 0 0 0 0 0.1 0"/>
<feBlend mode="normal" in2="BackgroundImageFix" result="effect1_dropShadow_1403_1476"/>
<feBlend mode="normal" in="SourceGraphic" in2="effect1_dropShadow_1403_1476" result="shape"/>
</filter>
</defs>
</svg>
